<svg width="162" height="40" viewBox="0 0 162 40" fill="none" xmlns="http://www.w3.org/2000/svg">
<g clip-path="url(#clip0_723_3489)">
<path d="M9.92971 36.3827C13.033 36.3827 14.533 32.6622 14.533 27.0264C14.533 25.2178 14.4796 23.1493 14.223 21.0309H18.7762C18.3095 23.7189 18.1029 26.2503 18.1029 28.422C18.1029 33.2817 19.6562 36.4327 22.4995 36.3827C26.1194 36.3294 26.6894 30.3872 26.6894 25.3743C26.6894 20.3614 25.7061 15.7082 21.1561 15.7082C18.9329 15.7082 17.4829 17.1038 17.4829 18.3962H17.2229C17.2229 15.1387 19.2395 12.3474 23.2761 12.3474C27.776 12.3474 30.726 15.605 30.726 24.3384C30.726 33.0719 27.9327 40 22.2428 40C17.7929 40 15.3629 37.0023 15.2096 32.7621H14.9496C14.6396 37.0023 12.673 40 8.99973 40C4.54982 40 1.75655 37.0522 1.75655 31.3665V16.1712C1.75655 15.0354 1.39322 14.4125 -0.00341797 14.4125V14.1028C2.94652 14.1028 5.01315 13.843 6.71978 12.8637V31.3665C6.71978 34.7273 7.54643 36.3794 9.92638 36.3794L9.92971 36.3827Z" fill="#3C4527"/>
<path d="M40.396 37.725C40.396 38.6044 40.5527 39.2239 42.2593 39.2772V39.4837H33.6729V39.2772C35.0695 39.2239 35.4328 38.6044 35.4328 37.725V16.1712C35.4328 15.0354 35.5128 14.2993 34.1162 14.2993L33.7229 14.2893C36.6728 14.2893 38.6894 13.8463 40.3994 12.8637V37.725H40.396Z" fill="#3C4527"/>
<path d="M51.0523 37.725C51.0523 38.6044 51.209 39.2239 52.9156 39.2772V39.4837H44.3291V39.2772C45.7257 39.2239 46.0891 38.6044 46.0891 37.725V4.02365C46.0891 2.88783 45.7257 2.26496 44.3291 2.26496V1.9552C47.279 1.9552 49.3457 1.69539 51.0523 0.716125V37.725Z" fill="#3C4527"/>
<path d="M73.7053 40C70.652 40 69.4654 38.5011 69.4654 35.7099C69.4654 35.0371 69.5687 34.1078 69.7754 33.0752H69.5687C68.7921 37.3653 66.6188 40 62.9489 40C56.639 40 55.499 33.4349 55.499 27.6992C55.499 18.6527 58.499 12.3474 64.1388 12.3474C67.5521 12.3474 68.4321 14.5191 68.6388 16.1212H68.8987V4.02365C68.8987 2.88783 68.4854 2.26496 66.8288 2.26496V1.9552C69.0521 1.9552 72.6753 1.69539 73.862 0.716125V33.5915C73.862 36.6925 74.2753 38.1914 75.4153 38.1914C75.9853 38.1914 76.3986 37.8816 76.3986 37.1055C76.3986 36.899 76.3453 36.6392 76.2953 36.3294L76.5019 36.2795C76.6586 36.6925 76.7086 37.0555 76.7086 37.3653C76.7086 38.9175 75.4686 40 73.7086 40H73.7053ZM65.2222 36.5892C67.4988 36.5892 68.5321 34.6773 68.8954 33.0219V17.9798C68.6888 16.9972 67.6554 15.9647 66.2055 15.9647C62.3789 15.9647 60.6723 20.6678 60.6723 27.6992C60.6723 33.0219 61.9122 36.5892 65.2255 36.5892H65.2222Z" fill="#3C4527"/>
<path d="M87.4114 39.4837H78.8249V39.2772C80.2216 39.2239 80.5849 38.6044 80.5849 37.725V15.7049L78.4116 16.0147V14.3093H80.5849V14.206C80.5849 6.14206 82.9649 0.716125 88.7047 0.716125C91.0314 0.716125 92.8947 2.05845 92.8413 4.59322C94.6513 3.71388 95.9446 2.62802 97.4446 0.716125V37.725C97.4446 38.6044 97.6012 39.2239 99.3079 39.2772V39.4837H90.7214V39.2772C92.118 39.2239 92.4813 38.6044 92.4813 37.725V8.2638C92.4813 5.78233 91.7047 4.54326 89.7414 4.54326C86.9481 4.54326 85.5515 7.17795 85.5515 12.8637V14.156L89.6881 14.1028L89.7414 14.4125L85.5515 14.9821V37.725C85.5515 38.6044 85.7048 39.2239 87.4148 39.2772V39.4837H87.4114Z" fill="#3C4527"/>
<path d="M111.411 40C105.101 40 101.895 35.0904 101.895 26.0971C101.895 17.1038 105.101 12.3474 111.411 12.3474C117.721 12.3474 120.927 17.2071 120.927 26.0971C120.927 34.9871 117.721 40 111.411 40ZM111.411 15.8081C108.411 15.8081 107.118 19.2189 107.118 26.2503C107.118 33.2817 108.308 36.5359 111.411 36.5359C114.514 36.5359 115.704 33.1252 115.704 26.0438C115.704 18.9625 114.514 15.8081 111.411 15.8081Z" fill="#3C4527"/>
<path d="M123.721 39.4837V39.2772C125.117 39.2239 125.481 38.6044 125.481 37.725V16.1712C125.481 15.0354 125.117 14.4125 123.721 14.4125V14.1028C126.101 14.1028 127.704 13.6897 129.151 12.8637V20.8244H129.514C129.671 15.9147 131.377 12.3474 135.774 12.3474C138.567 12.3474 140.327 14.1561 140.327 16.6908C140.327 19.9484 137.74 21.807 134.017 21.807V21.4972C135.93 21.4972 136.654 20.1016 136.654 18.706C136.654 17.3104 135.93 16.2245 134.12 16.2245C131.897 16.2245 130.447 18.293 130.447 22.0135V37.7284C130.447 38.6077 130.707 39.1773 133.344 39.2805V39.4871H123.724L123.721 39.4837Z" fill="#3C4527"/>
<path d="M152.017 22.3233C151.447 24.0287 149.897 25.0112 148.19 25.0112C144.931 25.0112 142.657 22.7363 142.657 19.4821C142.657 15.0887 145.864 12.3474 150.364 12.3474C157.037 12.3474 159.157 16.7941 159.157 23.4091V33.5915C159.157 36.6925 159.417 38.1914 160.657 38.1914C161.227 38.1914 161.69 37.8816 161.69 37.1055C161.69 36.899 161.637 36.6392 161.587 36.3294L161.794 36.2795C161.95 36.6925 162 37.0555 162 37.3653C162 38.9175 160.76 40 159 40C155.947 40 154.707 38.5011 154.707 36.2262C154.707 35.5533 154.86 34.3143 155.07 33.0719H154.864C153.624 38.4478 150.777 39.9967 147.467 39.9967C144.934 39.9967 142.141 38.4445 142.141 35.087C142.141 30.3839 146.591 28.6252 153.26 28.6252H153.674L153.724 28.935H153.464C150.93 28.935 147.204 30.7436 147.204 33.6914C147.204 35.6566 148.444 36.5859 150.36 36.5859C152.277 36.5859 153.67 35.0337 154.187 33.0186V23.4058C154.187 19.4787 153.41 16.0646 150.204 16.0646C147.824 16.0646 146.064 17.5135 146.064 20.1482C146.064 21.9069 146.944 23.7655 149.374 23.7655C150.51 23.7655 151.494 23.1959 151.857 22.3166H152.014L152.017 22.3233Z" fill="#3C4527"/>
<path d="M31.1092 12.3907L29.5059 13.0569L30.6458 14.4258C31.1592 15.0387 32.0091 15.2552 32.7491 14.9554L34.3924 14.2959C34.3924 14.2959 32.2158 14.266 31.5358 13.5698L34.3924 14.2959L33.2358 12.9136C32.7191 12.2941 31.8558 12.0843 31.1125 12.394L31.1092 12.3907Z" fill="#59663A"/>
<path d="M39.9956 3.20426L37.4457 0L35.0791 3.47073C34.0158 5.02956 34.0791 7.09468 35.2391 8.58356L37.8024 11.8811C37.8024 11.8811 36.4591 6.92481 37.6024 4.93297L37.8024 11.8811L40.1923 8.3604C41.2623 6.78491 41.1823 4.69648 39.9956 3.20759V3.20426Z" fill="#59663A"/>
</g>
<defs>
<clipPath id="clip0_723_3489">
<rect width="162" height="40" fill="white"/>
</clipPath>
</defs>
</svg>
